<?xml version="1.0" encoding="UTF-8" standalone="no"?>
<!DOCTYPE svg PUBLIC "-//W3C//DTD SVG 1.1//EN" "http://www.w3.org/Graphics/SVG/1.1/DTD/svg11.dtd">
<svg width="100%" height="100%" viewBox="0 0 500 200" version="1.1" xmlns="http://www.w3.org/2000/svg" xmlns:xlink="http://www.w3.org/1999/xlink" xml:space="preserve" xmlns:serif="http://www.serif.com/" style="fill-rule:evenodd;clip-rule:evenodd;stroke-linejoin:round;stroke-miterlimit:2;">
    <g transform="matrix(1,0,0,1,-25.4163,19.1031)">
        <g transform="matrix(144,0,0,144,135.753,103.641)">
        </g>
        <text x="39.706px" y="103.641px" style="font-family:'Helvetica-Bold', 'Helvetica';font-weight:700;font-size:144px;">S</text>
    </g>
    <g transform="matrix(1,0,0,1,-310.448,3.85043)">
        <g transform="matrix(144,0,0,144,482.659,169.37)">
        </g>
        <text x="386.612px" y="169.37px" style="font-family:'Helvetica-Bold', 'Helvetica';font-weight:700;font-size:144px;">S</text>
    </g>
    <g transform="matrix(1,0,0,1,-368.992,-14.3397)">
        <g transform="matrix(144,0,0,144,597.62,127.471)">
        </g>
        <text x="493.628px" y="127.471px" style="font-family:'Helvetica-Bold', 'Helvetica';font-weight:700;font-size:144px;">C</text>
    </g>
    <g transform="matrix(1,0,0,1,-33.4387,18.903)">
        <g transform="matrix(144,0,0,144,135.753,103.641)">
        </g>
        <text x="39.706px" y="103.641px" style="font-family:'Helvetica-Bold', 'Helvetica';font-weight:700;font-size:144px;fill:rgb(254,207,15);">S</text>
    </g>
    <g transform="matrix(1,0,0,1,-318.47,3.65027)">
        <g transform="matrix(144,0,0,144,482.659,169.37)">
        </g>
        <text x="386.612px" y="169.37px" style="font-family:'Helvetica-Bold', 'Helvetica';font-weight:700;font-size:144px;fill:rgb(254,207,15);">S</text>
    </g>
    <g transform="matrix(1,0,0,1,-377.014,-14.5399)">
        <g transform="matrix(144,0,0,144,597.62,127.471)">
        </g>
        <text x="493.628px" y="127.471px" style="font-family:'Helvetica-Bold', 'Helvetica';font-weight:700;font-size:144px;fill:rgb(254,207,15);">C</text>
    </g>
    <g transform="matrix(1,0,0,1,-110.478,13.7063)">
        <text x="354.566px" y="98.875px" style="font-family:'Helvetica-Bold', 'Helvetica';font-weight:700;font-size:48px;">Sparkling</text>
    </g>
    <g transform="matrix(1,0,0,1,-108.712,-20.8358)">
        <g transform="matrix(30,0,0,30,571.352,174.84)">
        </g>
        <text x="354.585px" y="174.84px" style="font-family:'Helvetica-Bold', 'Helvetica';font-weight:700;font-size:30px;">Science Center</text>
    </g>
    <g id="hexagon-2307348.svg" transform="matrix(0.112202,-0.000871455,0.000840906,0.108269,177.327,60.6097)">
        <g transform="matrix(1,0,0,1,-250,-250)">
            <g transform="matrix(0.719149,-0.459882,0.459882,0.719149,-298.776,-212.044)">
                <g>
                    <g transform="matrix(1,0,0,1,0,552.36)">
                        <path d="M325.53,95.428C320.045,95.352 314.145,96.802 308.135,99.369C297.451,103.934 285.873,112.118 273.696,123.238C262.259,133.682 250.314,146.767 238.409,161.926C222.986,150.366 208.062,140.818 194.311,133.69C179.67,126.101 166.367,121.191 154.866,119.547C143.365,117.904 133.122,119.586 126.356,126.352C119.59,133.118 117.907,143.36 119.551,154.862C120.767,163.366 123.779,172.86 128.329,183.147C130.836,180.932 133.896,179.332 137.284,178.63C133.128,169.114 130.465,160.554 129.45,153.448C128.053,143.677 129.674,137.177 133.428,133.423C136.244,130.607 140.603,128.994 146.729,128.952C148.771,128.938 151.009,129.097 153.452,129.446C163.222,130.842 175.72,135.317 189.71,142.569C202.828,149.369 217.279,158.613 232.31,169.874C225.311,179.222 218.363,189.269 211.57,199.911C193.142,205.74 175.975,212.285 160.513,219.263C158.688,216.602 156.934,213.969 155.251,211.365C152.915,213.774 149.972,215.584 146.673,216.548C148.165,218.865 149.704,221.199 151.302,223.554C140.267,228.896 130.241,234.444 121.431,240.077C107.538,248.961 96.637,258.028 89.462,267.167C82.288,276.306 78.62,286.016 81.097,295.259C83.573,304.502 91.606,311.08 102.388,315.407C113.17,319.734 127.145,322.134 143.618,322.882C147.196,323.044 150.914,323.111 154.72,323.114C153.737,326.791 152.841,330.4 152.071,333.899C148.53,350.005 147.231,364.126 148.62,375.661C150.009,387.196 154.285,396.656 162.571,401.44C170.858,406.224 181.188,405.196 191.872,400.631C195.858,398.928 199.969,396.72 204.188,394.045C201.553,391.929 199.481,389.148 198.216,385.961C194.596,388.225 191.153,390.065 187.945,391.436C178.868,395.314 172.17,395.434 167.572,392.78C162.974,390.125 159.73,384.264 158.55,374.466C157.37,364.667 158.455,351.436 161.839,336.046C162.765,331.834 163.877,327.447 165.138,322.931C185.47,322.219 208.396,319.431 232.718,314.515C239.735,320.707 246.729,326.536 253.65,331.978C244.612,343.479 235.602,353.687 226.902,362.357C229.745,364.185 232.091,366.721 233.679,369.72C242.834,360.633 252.228,350.01 261.601,338.075C277.024,349.635 291.948,359.183 305.699,366.311C320.34,373.901 333.641,378.81 345.142,380.454C356.643,382.098 366.888,380.416 373.654,373.649C380.421,366.883 382.103,356.639 380.459,345.137C378.815,333.636 373.906,320.334 366.316,305.694C361.503,296.411 355.592,286.592 348.707,276.448C359.742,271.106 369.77,265.558 378.58,259.925C392.473,251.041 403.376,241.976 410.551,232.837C417.725,223.699 421.389,213.984 418.912,204.741C416.436,195.498 408.407,188.922 397.625,184.595C396.287,184.058 394.899,183.55 393.463,183.072C393.471,183.298 393.481,183.524 393.481,183.752C393.481,187.042 392.65,190.146 391.198,192.875C392.129,193.198 393.038,193.528 393.901,193.875C403.06,197.551 407.878,202.204 409.253,207.332C410.627,212.46 408.781,218.899 402.686,226.662C396.592,234.425 386.469,243.012 373.194,251.502C364.394,257.13 354.188,262.724 342.878,268.131C336.399,259.118 329.21,249.904 321.347,240.61C330.236,221.749 337.312,203.602 342.419,186.903C342.825,186.899 343.245,186.884 343.648,186.881C347.456,186.858 351.122,186.93 354.675,187.071C354.488,185.99 354.37,184.885 354.37,183.752C354.37,181.413 354.807,179.176 355.569,177.092C352.242,176.955 348.81,176.892 345.292,176.889C346.275,173.212 347.171,169.603 347.941,166.104C351.483,149.998 352.779,135.877 351.39,124.342C350.001,112.807 345.728,103.349 337.441,98.565C333.816,96.472 329.799,95.489 325.533,95.43L325.53,95.428ZM325.175,105.414C328.013,105.431 330.427,106.062 332.438,107.223C337.036,109.877 340.28,115.738 341.46,125.537C342.64,135.335 341.555,148.563 338.171,163.953C337.244,168.165 336.133,172.552 334.872,177.068C314.54,177.78 291.614,180.567 267.292,185.484C260.274,179.291 253.279,173.465 246.358,168.023C257.962,153.256 269.529,140.585 280.44,130.621C292.076,119.995 302.989,112.444 312.065,108.566C317.17,106.385 321.524,105.392 325.174,105.414L325.175,105.414ZM240.259,175.969C245.153,179.819 250.093,183.875 255.058,188.121C248.368,189.641 241.604,191.297 234.767,193.129C231.978,193.876 229.211,194.643 226.468,195.424C231.028,188.64 235.637,182.144 240.259,175.969L240.259,175.969ZM364.119,177.624C363.017,179.396 362.372,181.489 362.372,183.751C362.372,185.095 362.607,186.377 363.021,187.573C370.546,188.189 377.351,189.206 383.251,190.596C384.65,188.685 385.483,186.326 385.483,183.751C385.483,182.704 385.334,181.696 385.079,180.735C378.771,179.27 371.746,178.251 364.118,177.624L364.119,177.624ZM140.849,186.245C137.193,186.364 133.997,188.139 131.972,190.858C132.54,192.004 133.097,193.144 133.7,194.307C136.218,199.164 139.044,204.171 142.145,209.291C145.77,209.015 148.906,207.109 150.817,204.285C147.771,199.277 145.015,194.405 142.579,189.705C141.973,188.536 141.416,187.393 140.848,186.244L140.849,186.245ZM331.839,187.208C327.356,201.285 321.423,216.493 314.157,232.306C307.095,224.321 299.585,216.314 291.639,208.368C286.633,203.362 281.604,198.546 276.571,193.886C296.363,190.202 315.051,187.989 331.839,187.208L331.839,187.208ZM264.394,196.311C271.126,202.367 277.872,208.74 284.57,215.438C293.444,224.312 301.759,233.268 309.488,242.168C304.326,252.765 298.613,263.569 292.338,274.438C288.937,280.328 285.465,286.052 281.955,291.633C275.654,293.58 269.228,295.451 262.658,297.211C253.508,299.663 244.479,301.812 235.621,303.69C228.888,297.634 222.143,291.261 215.445,284.563C206.57,275.688 198.256,266.733 190.527,257.833C195.689,247.235 201.404,236.431 207.679,225.562C211.079,219.672 214.549,213.948 218.06,208.367C224.359,206.42 230.788,204.549 237.357,202.789C246.507,200.337 255.535,198.19 264.394,196.312L264.394,196.311ZM203.384,213.139C201.918,215.588 200.462,218.06 199.018,220.561C193.4,230.293 188.216,239.972 183.461,249.512C177.319,242.107 171.618,234.777 166.4,227.598C177.819,222.516 190.213,217.65 203.382,213.139L203.384,213.139ZM157.136,231.873C163.614,240.885 170.805,250.099 178.667,259.393C169.777,278.254 162.704,296.401 157.597,313.1C152.907,313.149 148.381,313.088 144.074,312.893C128.332,312.179 115.273,309.803 106.113,306.127C96.953,302.452 92.134,297.799 90.759,292.67C89.384,287.542 91.232,281.103 97.327,273.34C103.422,265.577 113.544,256.992 126.819,248.502C135.62,242.874 145.824,237.281 157.135,231.873L157.136,231.873ZM316.546,250.488C322.688,257.893 328.389,265.221 333.607,272.4C322.188,277.482 309.796,282.348 296.628,286.859C298.092,284.411 299.549,281.938 300.993,279.437C306.611,269.706 311.792,260.028 316.546,250.488L316.546,250.488ZM185.856,267.695C192.917,275.68 200.428,283.686 208.374,291.633C213.378,296.638 218.409,301.455 223.442,306.115C203.649,309.799 184.963,312.011 168.174,312.793C172.656,298.717 178.59,283.508 185.856,267.695L185.856,267.695ZM339.496,280.734C346.588,291.073 352.629,301.02 357.437,310.295C364.689,324.285 369.162,336.782 370.558,346.553C371.954,356.323 370.335,362.822 366.581,366.576C362.827,370.33 356.326,371.951 346.556,370.555C336.786,369.158 324.288,364.686 310.298,357.434C297.18,350.633 282.729,341.388 267.698,330.127C274.697,320.778 281.647,310.732 288.44,300.09C306.868,294.261 324.033,287.712 339.495,280.735L339.496,280.734ZM273.541,304.576C268.98,311.36 264.372,317.856 259.75,324.031C254.854,320.181 249.914,316.126 244.949,311.879C251.639,310.359 258.404,308.703 265.242,306.871C268.031,306.124 270.796,305.358 273.54,304.576L273.541,304.576ZM220.885,368.142C220.447,368.549 220.004,368.978 219.568,369.376C214.577,373.934 209.733,377.889 205.095,381.269C205.843,384.772 208.158,387.654 211.283,389.18C216.172,385.591 221.189,381.44 226.312,376.762C226.706,376.401 227.107,376.013 227.503,375.646C226.551,372.238 224.102,369.486 220.884,368.143L220.885,368.142Z" style="fill:rgb(85,85,85);fill-rule:nonzero;"/>
                    </g>
                    <circle cx="250" cy="802.36" r="23.335" style="fill:rgb(254,207,15);"/>
                    <path d="M389.48,736.11C389.48,744.644 382.458,751.666 373.924,751.666C365.39,751.666 358.368,744.644 358.368,736.11C358.368,727.576 365.39,720.554 373.924,720.554C382.458,720.554 389.48,727.576 389.48,736.11Z" style="fill:rgb(254,207,15);fill-rule:nonzero;"/>
                    <path d="M231.94,931.17C231.94,939.704 224.918,946.726 216.384,946.726C207.85,946.726 200.828,939.704 200.828,931.17C200.828,922.636 207.85,915.614 216.384,915.614C224.918,915.614 231.94,922.636 231.94,931.17Z" style="fill:rgb(254,207,15);fill-rule:nonzero;"/>
                    <path d="M156.78,750.14C156.78,758.674 149.758,765.696 141.224,765.696C132.69,765.696 125.668,758.674 125.668,750.14C125.668,741.606 132.69,734.584 141.224,734.584C149.758,734.584 156.78,741.606 156.78,750.14Z" style="fill:rgb(254,207,15);fill-rule:nonzero;"/>
                </g>
            </g>
        </g>
    </g>
    <g transform="matrix(1,0,0,1,-3.11112,9.87403)">
        <rect x="259.25" y="27.741" width="190.773" height="14.41" style="fill:rgb(128,128,128);"/>
    </g>
</svg>
