<?xml version="1.0" encoding="UTF-8" standalone="no"?>
<!DOCTYPE svg PUBLIC "-//W3C//DTD SVG 1.1//EN" "http://www.w3.org/Graphics/SVG/1.1/DTD/svg11.dtd">
<svg width="100%" height="100%" viewBox="0 0 500 200" version="1.1" xmlns="http://www.w3.org/2000/svg" xmlns:xlink="http://www.w3.org/1999/xlink" xml:space="preserve" xmlns:serif="http://www.serif.com/" style="fill-rule:evenodd;clip-rule:evenodd;stroke-linejoin:round;stroke-miterlimit:2;">
    <g transform="matrix(4.16667,0,0,4.16667,192.824,38.3267)">
        <path d="M0,8.407C0.58,8.407 1.052,8.343 1.414,8.216C2.101,7.97 2.443,7.515 2.443,6.85C2.443,6.462 2.273,6.161 1.933,5.948C1.592,5.74 1.057,5.557 0.328,5.397L-0.918,5.117C-2.142,4.841 -2.988,4.54 -3.457,4.216C-4.25,3.673 -4.646,2.824 -4.646,1.668C-4.646,0.615 -4.263,-0.261 -3.497,-0.958C-2.73,-1.656 -1.604,-2.004 -0.119,-2.004C1.121,-2.004 2.179,-1.676 3.055,-1.018C3.93,-0.361 4.389,0.594 4.432,1.844L2.068,1.844C2.025,1.136 1.717,0.633 1.143,0.335C0.759,0.138 0.282,0.04 -0.287,0.04C-0.921,0.04 -1.426,0.167 -1.804,0.423C-2.182,0.678 -2.371,1.035 -2.371,1.493C-2.371,1.913 -2.185,2.227 -1.812,2.435C-1.572,2.574 -1.062,2.736 -0.279,2.922L1.749,3.409C2.638,3.622 3.309,3.907 3.761,4.263C4.464,4.817 4.814,5.618 4.814,6.667C4.814,7.742 4.403,8.635 3.581,9.345C2.759,10.056 1.598,10.411 0.097,10.411C-1.437,10.411 -2.643,10.061 -3.521,9.361C-4.398,8.661 -4.838,7.699 -4.838,6.475L-2.49,6.475C-2.416,7.012 -2.27,7.414 -2.052,7.68C-1.652,8.165 -0.969,8.407 0,8.407" style="fill:rgb(38,54,113);fill-rule:nonzero;"/>
    </g>
    <g transform="matrix(4.16667,0,0,4.16667,244.688,75.7855)">
        <path d="M0,-3.234C0,-3.904 -0.152,-4.498 -0.459,-5.014C-0.765,-5.53 -1.261,-5.789 -1.948,-5.789C-2.772,-5.789 -3.34,-5.398 -3.648,-4.615C-3.808,-4.2 -3.888,-3.673 -3.888,-3.034C-3.888,-2.023 -3.619,-1.312 -3.081,-0.902C-2.762,-0.663 -2.385,-0.543 -1.948,-0.543C-1.314,-0.543 -0.831,-0.788 -0.499,-1.277C-0.166,-1.767 0,-2.42 0,-3.234M1.294,-6.651C1.996,-5.901 2.348,-4.798 2.348,-3.345C2.348,-1.813 2.003,-0.644 1.313,0.16C0.624,0.963 -0.263,1.365 -1.349,1.365C-2.041,1.365 -2.616,1.192 -3.073,0.846C-3.324,0.655 -3.568,0.375 -3.808,0.008L-3.808,4.543L-6.06,4.543L-6.06,-7.585L-3.88,-7.585L-3.88,-6.3C-3.635,-6.677 -3.374,-6.976 -3.098,-7.194C-2.592,-7.582 -1.99,-7.777 -1.293,-7.777C-0.276,-7.777 0.586,-7.401 1.294,-6.651" style="fill:rgb(38,54,113);fill-rule:nonzero;"/>
    </g>
    <g transform="matrix(4.16667,0,0,4.16667,269.741,51.2984)">
        <path d="M0,5.35C0.213,5.525 0.474,5.613 0.782,5.613C1.271,5.613 1.723,5.47 2.136,5.182C2.548,4.895 2.763,4.371 2.778,3.609L2.778,2.763C2.635,2.853 2.489,2.927 2.343,2.982C2.196,3.038 1.996,3.09 1.74,3.138L1.229,3.234C0.75,3.319 0.407,3.423 0.199,3.545C-0.152,3.753 -0.327,4.075 -0.327,4.512C-0.327,4.9 -0.219,5.18 0,5.35M-1.692,-0.766C-1.092,-1.532 -0.059,-1.916 1.405,-1.916C2.357,-1.916 3.204,-1.727 3.944,-1.349C4.684,-0.971 5.054,-0.258 5.054,0.791L5.054,4.783C5.054,5.06 5.059,5.395 5.069,5.789C5.086,6.087 5.131,6.289 5.205,6.396C5.28,6.502 5.392,6.59 5.541,6.659L5.541,6.995L3.065,6.995C2.996,6.819 2.948,6.654 2.922,6.499C2.896,6.345 2.874,6.169 2.858,5.973C2.544,6.313 2.182,6.603 1.772,6.843C1.282,7.125 0.729,7.266 0.111,7.266C-0.676,7.266 -1.327,7.041 -1.841,6.591C-2.354,6.142 -2.611,5.504 -2.611,4.679C-2.611,3.609 -2.198,2.835 -1.373,2.356C-0.921,2.095 -0.256,1.909 0.623,1.797L1.397,1.701C1.817,1.648 2.118,1.581 2.299,1.501C2.624,1.363 2.786,1.147 2.786,0.855C2.786,0.498 2.662,0.252 2.415,0.116C2.168,-0.02 1.805,-0.087 1.325,-0.087C0.787,-0.087 0.407,0.046 0.184,0.312C0.023,0.509 -0.083,0.775 -0.136,1.11L-2.331,1.11C-2.283,0.349 -2.07,-0.276 -1.692,-0.766" style="fill:rgb(38,54,113);fill-rule:nonzero;"/>
    </g>
    <g transform="matrix(4.16667,0,0,4.16667,317.446,70.8296)">
        <path d="M0,-4.296C-0.916,-4.296 -1.53,-3.998 -1.845,-3.401C-2.021,-3.067 -2.108,-2.55 -2.108,-1.853L-2.108,2.307L-4.399,2.307L-4.399,-6.396L-2.228,-6.396L-2.228,-4.879C-1.877,-5.459 -1.57,-5.856 -1.31,-6.068C-0.884,-6.425 -0.33,-6.603 0.351,-6.603C0.394,-6.603 0.43,-6.602 0.459,-6.599C0.488,-6.596 0.553,-6.592 0.654,-6.588L0.654,-4.256C0.511,-4.272 0.383,-4.282 0.271,-4.288C0.159,-4.293 0.068,-4.296 0,-4.296" style="fill:rgb(38,54,113);fill-rule:nonzero;"/>
    </g>
    <g transform="matrix(4.16667,0,0,4.16667,358.994,31.5713)">
        <path d="M0,11.729L-2.746,11.729L-4.83,8.008L-5.772,8.99L-5.772,11.729L-8.008,11.729L-8.008,0L-5.772,0L-5.772,6.34L-2.938,3.066L-0.12,3.066L-3.161,6.396L0,11.729Z" style="fill:rgb(38,54,113);fill-rule:nonzero;"/>
    </g>
    <g transform="matrix(4.16667,0,0,4.16667,-46.894,-298.36)">
        <rect x="98.57" y="79.144" width="2.276" height="11.769" style="fill:rgb(38,54,113);"/>
    </g>
    <g transform="matrix(4.16667,0,0,4.16667,-46.894,-298.66)">
        <path d="M105.405,90.985L103.097,90.985L103.097,82.282L105.405,82.282L105.405,90.985ZM105.405,81.244L103.097,81.244L103.097,79.144L105.405,79.144L105.405,81.244Z" style="fill:rgb(38,54,113);fill-rule:nonzero;"/>
    </g>
    <g transform="matrix(4.16667,0,0,4.16667,418.544,72.5584)">
        <path d="M0,-5.126C-0.772,-5.126 -1.302,-4.799 -1.589,-4.144C-1.738,-3.798 -1.812,-3.356 -1.812,-2.818L-1.812,1.892L-4.08,1.892L-4.08,-6.794L-1.885,-6.794L-1.885,-5.525C-1.592,-5.972 -1.315,-6.294 -1.055,-6.491C-0.586,-6.843 0.008,-7.018 0.727,-7.018C1.626,-7.018 2.361,-6.783 2.934,-6.312C3.506,-5.84 3.792,-5.06 3.792,-3.968L3.792,1.892L1.461,1.892L1.461,-3.401C1.461,-3.859 1.399,-4.21 1.277,-4.455C1.054,-4.902 0.628,-5.126 0,-5.126" style="fill:rgb(38,54,113);fill-rule:nonzero;"/>
    </g>
    <g transform="matrix(4.16667,0,0,4.16667,451.744,70.5288)">
        <path d="M0,-0.591C0.309,0.144 0.862,0.511 1.661,0.511C2.193,0.511 2.643,0.31 3.01,-0.092C3.377,-0.494 3.561,-1.134 3.561,-2.012C3.561,-2.837 3.387,-3.465 3.038,-3.896C2.689,-4.327 2.223,-4.543 1.637,-4.543C0.839,-4.543 0.287,-4.168 -0.016,-3.417C-0.176,-3.018 -0.256,-2.526 -0.256,-1.94C-0.256,-1.434 -0.17,-0.985 0,-0.591M0.384,3.904C0.628,4.112 1.041,4.216 1.621,4.216C2.44,4.216 2.988,3.941 3.266,3.393C3.446,3.042 3.537,2.451 3.537,1.621L3.537,1.062C3.318,1.434 3.085,1.714 2.834,1.9C2.382,2.246 1.794,2.419 1.07,2.419C-0.048,2.419 -0.94,2.027 -1.608,1.242C-2.276,0.456 -2.61,-0.607 -2.61,-1.948C-2.61,-3.241 -2.289,-4.329 -1.645,-5.21C-1.001,-6.091 -0.088,-6.531 1.094,-6.531C1.53,-6.531 1.911,-6.465 2.235,-6.331C2.789,-6.103 3.236,-5.682 3.577,-5.07L3.577,-6.323L5.788,-6.323L5.788,1.932C5.788,3.055 5.6,3.902 5.222,4.471C4.572,5.451 3.327,5.94 1.485,5.94C0.373,5.94 -0.535,5.722 -1.237,5.285C-1.94,4.849 -2.329,4.197 -2.403,3.329L0.072,3.329C0.136,3.596 0.239,3.787 0.384,3.904" style="fill:rgb(38,54,113);fill-rule:nonzero;"/>
    </g>
    <g transform="matrix(4.16667,0,0,4.16667,174.441,115.624)">
        <path d="M0,2.737L0.956,2.654C1.001,3.037 1.106,3.351 1.272,3.596C1.437,3.842 1.694,4.041 2.043,4.192C2.391,4.343 2.782,4.42 3.218,4.42C3.604,4.42 3.945,4.362 4.241,4.247C4.538,4.133 4.758,3.974 4.902,3.774C5.047,3.574 5.119,3.355 5.119,3.119C5.119,2.879 5.05,2.669 4.91,2.489C4.771,2.31 4.541,2.159 4.221,2.038C4.016,1.958 3.561,1.833 2.857,1.664C2.154,1.495 1.661,1.336 1.379,1.186C1.014,0.995 0.741,0.757 0.562,0.473C0.382,0.19 0.293,-0.128 0.293,-0.48C0.293,-0.867 0.402,-1.228 0.622,-1.564C0.841,-1.9 1.161,-2.155 1.583,-2.329C2.004,-2.503 2.473,-2.591 2.988,-2.591C3.556,-2.591 4.057,-2.499 4.49,-2.316C4.923,-2.134 5.257,-1.865 5.49,-1.509C5.724,-1.154 5.849,-0.752 5.866,-0.303L4.895,-0.229C4.843,-0.713 4.666,-1.079 4.364,-1.326C4.063,-1.574 3.618,-1.697 3.029,-1.697C2.417,-1.697 1.97,-1.585 1.689,-1.36C1.409,-1.136 1.27,-0.865 1.27,-0.548C1.27,-0.273 1.369,-0.047 1.567,0.131C1.762,0.309 2.271,0.491 3.095,0.677C3.919,0.863 4.483,1.026 4.79,1.165C5.236,1.371 5.564,1.631 5.777,1.946C5.99,2.261 6.096,2.625 6.096,3.035C6.096,3.443 5.979,3.827 5.746,4.187C5.513,4.548 5.178,4.828 4.74,5.028C4.304,5.228 3.812,5.328 3.265,5.328C2.572,5.328 1.991,5.227 1.522,5.025C1.055,4.823 0.687,4.519 0.421,4.114C0.154,3.708 0.014,3.25 0,2.737" style="fill:rgb(38,54,113);fill-rule:nonzero;"/>
    </g>
    <g transform="matrix(4.16667,0,0,4.16667,220.192,122.631)">
        <path d="M0,1.484L0.925,1.604C0.823,2.242 0.564,2.74 0.148,3.101C-0.268,3.462 -0.778,3.641 -1.385,3.641C-2.144,3.641 -2.754,3.393 -3.215,2.897C-3.677,2.401 -3.907,1.689 -3.907,0.763C-3.907,0.165 -3.808,-0.36 -3.609,-0.809C-3.411,-1.258 -3.109,-1.595 -2.703,-1.82C-2.298,-2.044 -1.856,-2.157 -1.379,-2.157C-0.776,-2.157 -0.284,-2.004 0.1,-1.7C0.482,-1.395 0.728,-0.962 0.836,-0.402L-0.078,-0.261C-0.165,-0.633 -0.319,-0.913 -0.541,-1.101C-0.762,-1.289 -1.029,-1.384 -1.343,-1.384C-1.816,-1.384 -2.201,-1.214 -2.497,-0.874C-2.793,-0.535 -2.941,0.003 -2.941,0.737C-2.941,1.482 -2.798,2.024 -2.513,2.362C-2.228,2.7 -1.854,2.868 -1.395,2.868C-1.025,2.868 -0.718,2.755 -0.47,2.529C-0.223,2.302 -0.066,1.954 0,1.484" style="fill:rgb(38,54,113);fill-rule:nonzero;"/>
    </g>
    <g transform="matrix(4.16667,0,0,4.16667,-46.894,-167.556)">
        <path d="M65.834,67.614L66.774,67.614L66.774,73.161L65.834,73.161L65.834,67.614ZM65.834,65.503L66.774,65.503L66.774,66.584L65.834,66.584L65.834,65.503Z" style="fill:rgb(38,54,113);fill-rule:nonzero;"/>
    </g>
    <g transform="matrix(4.16667,0,0,4.16667,240.261,127.946)">
        <path d="M0,-1.066L3.097,-1.066C3.056,-1.533 2.937,-1.882 2.742,-2.116C2.442,-2.478 2.054,-2.659 1.577,-2.659C1.146,-2.659 0.782,-2.515 0.488,-2.226C0.193,-1.937 0.031,-1.55 0,-1.066M3.087,0.454L4.059,0.574C3.905,1.142 3.621,1.582 3.207,1.896C2.792,2.209 2.263,2.366 1.619,2.366C0.808,2.366 0.164,2.116 -0.312,1.617C-0.786,1.117 -1.024,0.415 -1.024,-0.486C-1.024,-1.42 -0.784,-2.144 -0.304,-2.659C0.177,-3.174 0.801,-3.432 1.566,-3.432C2.309,-3.432 2.914,-3.18 3.385,-2.675C3.854,-2.17 4.09,-1.46 4.09,-0.544C4.09,-0.488 4.088,-0.405 4.084,-0.293L-0.053,-0.293C-0.018,0.317 0.154,0.783 0.465,1.107C0.774,1.431 1.161,1.592 1.624,1.592C1.969,1.592 2.263,1.502 2.507,1.321C2.751,1.14 2.944,0.851 3.087,0.454" style="fill:rgb(38,54,113);fill-rule:nonzero;"/>
    </g>
    <g transform="matrix(4.16667,0,0,4.16667,262.087,113.645)">
        <path d="M0,5.673L0,0.126L0.847,0.126L0.847,0.914C1.254,0.305 1.842,0 2.612,0C2.946,0 3.254,0.06 3.534,0.18C3.814,0.3 4.024,0.458 4.163,0.653C4.303,0.848 4.4,1.08 4.456,1.348C4.49,1.522 4.508,1.826 4.508,2.262L4.508,5.673L3.567,5.673L3.567,2.298C3.567,1.915 3.531,1.629 3.458,1.439C3.385,1.25 3.255,1.098 3.069,0.985C2.883,0.872 2.664,0.815 2.413,0.815C2.013,0.815 1.667,0.942 1.377,1.196C1.086,1.45 0.94,1.933 0.94,2.643L0.94,5.673L0,5.673Z" style="fill:rgb(38,54,113);fill-rule:nonzero;"/>
    </g>
    <g transform="matrix(4.16667,0,0,4.16667,301.963,122.631)">
        <path d="M0,1.484L0.925,1.604C0.823,2.242 0.564,2.74 0.148,3.101C-0.268,3.462 -0.778,3.641 -1.385,3.641C-2.144,3.641 -2.754,3.393 -3.215,2.897C-3.677,2.401 -3.907,1.689 -3.907,0.763C-3.907,0.165 -3.808,-0.36 -3.609,-0.809C-3.411,-1.258 -3.109,-1.595 -2.703,-1.82C-2.298,-2.044 -1.856,-2.157 -1.379,-2.157C-0.776,-2.157 -0.284,-2.004 0.1,-1.7C0.482,-1.395 0.728,-0.962 0.836,-0.402L-0.078,-0.261C-0.165,-0.633 -0.319,-0.913 -0.541,-1.101C-0.762,-1.289 -1.029,-1.384 -1.343,-1.384C-1.816,-1.384 -2.201,-1.214 -2.497,-0.874C-2.793,-0.535 -2.941,0.003 -2.941,0.737C-2.941,1.482 -2.798,2.024 -2.513,2.362C-2.228,2.7 -1.854,2.868 -1.395,2.868C-1.025,2.868 -0.718,2.755 -0.47,2.529C-0.223,2.302 -0.066,1.954 0,1.484" style="fill:rgb(38,54,113);fill-rule:nonzero;"/>
    </g>
    <g transform="matrix(4.16667,0,0,4.16667,312.128,127.946)">
        <path d="M0,-1.066L3.097,-1.066C3.056,-1.533 2.937,-1.882 2.742,-2.116C2.442,-2.478 2.054,-2.659 1.577,-2.659C1.146,-2.659 0.782,-2.515 0.488,-2.226C0.193,-1.937 0.031,-1.55 0,-1.066M3.087,0.454L4.059,0.574C3.905,1.142 3.621,1.582 3.207,1.896C2.792,2.209 2.263,2.366 1.619,2.366C0.808,2.366 0.164,2.116 -0.312,1.617C-0.786,1.117 -1.024,0.415 -1.024,-0.486C-1.024,-1.42 -0.784,-2.144 -0.304,-2.659C0.177,-3.174 0.801,-3.432 1.566,-3.432C2.309,-3.432 2.914,-3.18 3.385,-2.675C3.854,-2.17 4.09,-1.46 4.09,-0.544C4.09,-0.488 4.088,-0.405 4.084,-0.293L-0.053,-0.293C-0.018,0.317 0.154,0.783 0.465,1.107C0.774,1.431 1.161,1.592 1.624,1.592C1.969,1.592 2.263,1.502 2.507,1.321C2.751,1.14 2.944,0.851 3.087,0.454" style="fill:rgb(38,54,113);fill-rule:nonzero;"/>
    </g>
    <g transform="matrix(4.16667,0,0,4.16667,369.606,116.559)">
        <path d="M0,2.288L1.014,2.544C0.801,3.377 0.419,4.012 -0.133,4.448C-0.685,4.886 -1.359,5.103 -2.157,5.103C-2.982,5.103 -3.653,4.935 -4.171,4.6C-4.688,4.264 -5.082,3.777 -5.352,3.14C-5.621,2.503 -5.756,1.818 -5.756,1.087C-5.756,0.29 -5.604,-0.406 -5.299,-1C-4.994,-1.593 -4.561,-2.045 -3.998,-2.353C-3.437,-2.661 -2.817,-2.815 -2.142,-2.815C-1.375,-2.815 -0.731,-2.62 -0.209,-2.23C0.313,-1.84 0.678,-1.291 0.883,-0.585L-0.115,-0.349C-0.292,-0.906 -0.55,-1.312 -0.888,-1.566C-1.226,-1.82 -1.65,-1.948 -2.162,-1.948C-2.751,-1.948 -3.243,-1.807 -3.638,-1.525C-4.033,-1.243 -4.312,-0.864 -4.472,-0.388C-4.632,0.087 -4.712,0.577 -4.712,1.082C-4.712,1.733 -4.616,2.302 -4.427,2.787C-4.237,3.273 -3.942,3.636 -3.541,3.876C-3.141,4.117 -2.707,4.237 -2.241,4.237C-1.673,4.237 -1.192,4.073 -0.799,3.746C-0.405,3.419 -0.14,2.933 0,2.288" style="fill:rgb(38,54,113);fill-rule:nonzero;"/>
    </g>
    <g transform="matrix(4.16667,0,0,4.16667,381.492,127.946)">
        <path d="M0,-1.066L3.097,-1.066C3.056,-1.533 2.937,-1.882 2.742,-2.116C2.442,-2.478 2.054,-2.659 1.577,-2.659C1.146,-2.659 0.782,-2.515 0.488,-2.226C0.193,-1.937 0.031,-1.55 0,-1.066M3.087,0.454L4.059,0.574C3.905,1.142 3.621,1.582 3.207,1.896C2.792,2.209 2.263,2.366 1.619,2.366C0.808,2.366 0.164,2.116 -0.312,1.617C-0.786,1.117 -1.024,0.415 -1.024,-0.486C-1.024,-1.42 -0.784,-2.144 -0.304,-2.659C0.177,-3.174 0.801,-3.432 1.566,-3.432C2.309,-3.432 2.914,-3.18 3.385,-2.675C3.854,-2.17 4.09,-1.46 4.09,-0.544C4.09,-0.488 4.088,-0.405 4.084,-0.293L-0.053,-0.293C-0.018,0.317 0.154,0.783 0.465,1.107C0.774,1.431 1.161,1.592 1.624,1.592C1.969,1.592 2.263,1.502 2.507,1.321C2.751,1.14 2.944,0.851 3.087,0.454" style="fill:rgb(38,54,113);fill-rule:nonzero;"/>
    </g>
    <g transform="matrix(4.16667,0,0,4.16667,403.322,113.645)">
        <path d="M0,5.673L0,0.126L0.847,0.126L0.847,0.914C1.254,0.305 1.842,0 2.612,0C2.946,0 3.254,0.06 3.534,0.18C3.814,0.3 4.024,0.458 4.163,0.653C4.303,0.848 4.4,1.08 4.456,1.348C4.49,1.522 4.508,1.826 4.508,2.262L4.508,5.673L3.567,5.673L3.567,2.298C3.567,1.915 3.531,1.629 3.458,1.439C3.385,1.25 3.255,1.098 3.069,0.985C2.883,0.872 2.664,0.815 2.413,0.815C2.013,0.815 1.667,0.942 1.377,1.196C1.086,1.45 0.94,1.933 0.94,2.643L0.94,5.673L0,5.673Z" style="fill:rgb(38,54,113);fill-rule:nonzero;"/>
    </g>
    <g transform="matrix(4.16667,0,0,4.16667,436.664,109.9)">
        <path d="M0,5.731L0.136,6.561C-0.129,6.617 -0.365,6.645 -0.574,6.645C-0.916,6.645 -1.181,6.59 -1.368,6.483C-1.557,6.375 -1.688,6.233 -1.766,6.057C-1.842,5.881 -1.88,5.511 -1.88,4.947L-1.88,1.756L-2.569,1.756L-2.569,1.024L-1.88,1.024L-1.88,-0.35L-0.945,-0.914L-0.945,1.024L0,1.024L0,1.756L-0.945,1.756L-0.945,5C-0.945,5.267 -0.929,5.44 -0.896,5.516C-0.862,5.593 -0.809,5.654 -0.733,5.699C-0.659,5.745 -0.552,5.767 -0.412,5.767C-0.308,5.767 -0.171,5.755 0,5.731" style="fill:rgb(38,54,113);fill-rule:nonzero;"/>
    </g>
    <g transform="matrix(4.16667,0,0,4.16667,443.459,127.946)">
        <path d="M0,-1.066L3.097,-1.066C3.056,-1.533 2.937,-1.882 2.742,-2.116C2.442,-2.478 2.054,-2.659 1.577,-2.659C1.146,-2.659 0.782,-2.515 0.488,-2.226C0.193,-1.937 0.031,-1.55 0,-1.066M3.087,0.454L4.059,0.574C3.905,1.142 3.621,1.582 3.207,1.896C2.792,2.209 2.263,2.366 1.619,2.366C0.808,2.366 0.164,2.116 -0.312,1.617C-0.786,1.117 -1.024,0.415 -1.024,-0.486C-1.024,-1.42 -0.784,-2.144 -0.304,-2.659C0.177,-3.174 0.801,-3.432 1.566,-3.432C2.309,-3.432 2.914,-3.18 3.385,-2.675C3.854,-2.17 4.09,-1.46 4.09,-0.544C4.09,-0.488 4.088,-0.405 4.084,-0.293L-0.053,-0.293C-0.018,0.317 0.154,0.783 0.465,1.107C0.774,1.431 1.161,1.592 1.624,1.592C1.969,1.592 2.263,1.502 2.507,1.321C2.751,1.14 2.944,0.851 3.087,0.454" style="fill:rgb(38,54,113);fill-rule:nonzero;"/>
    </g>
    <g transform="matrix(4.16667,0,0,4.16667,465.24,113.645)">
        <path d="M0,5.673L0,0.126L0.847,0.126L0.847,0.966C1.062,0.573 1.262,0.314 1.444,0.188C1.628,0.063 1.829,0 2.048,0C2.365,0 2.688,0.101 3.015,0.303L2.69,1.175C2.461,1.04 2.23,0.972 2.001,0.972C1.796,0.972 1.611,1.034 1.447,1.157C1.283,1.281 1.167,1.452 1.098,1.671C0.993,2.006 0.94,2.371 0.94,2.769L0.94,5.673L0,5.673Z" style="fill:rgb(38,54,113);fill-rule:nonzero;"/>
    </g>
    <g transform="matrix(4.16667,0,0,4.16667,77.7893,85.7338)">
        <path d="M0,-11.657C-5.518,-6.902 -8.35,-0.196 -8.391,6.56C-5.291,5.692 -2.1,5.323 1.078,5.417C0.311,4.794 -0.57,4.305 -1.534,4C-1.899,3.882 -1.899,3.364 -1.534,3.248C0.932,2.464 2.877,0.513 3.664,-1.948C3.778,-2.313 4.294,-2.313 4.412,-1.948C4.671,-1.136 5.066,-0.388 5.555,0.29C6.18,-0.721 6.957,-1.661 7.908,-2.477C10.388,-4.613 13.483,-5.552 16.511,-5.376C16.647,-9.454 17.572,-13.49 19.263,-17.257C12.574,-18.217 5.524,-16.412 0,-11.657" style="fill:rgb(254,198,10);fill-rule:nonzero;"/>
    </g>
    <g transform="matrix(4.16667,0,0,4.16667,117.825,175.28)">
        <path d="M0,-17.491C-2.465,-16.711 -4.413,-14.762 -5.196,-12.299C-5.314,-11.931 -5.83,-11.931 -5.945,-12.299C-6.411,-13.758 -7.29,-15.028 -8.436,-15.99C-9.13,-14.544 -10.113,-13.209 -11.407,-12.095C-13.887,-9.962 -16.984,-9.026 -20.011,-9.199C-20.15,-5.122 -21.071,-1.085 -22.761,2.686C-16.071,3.643 -9.024,1.84 -3.502,-2.917C2.02,-7.674 4.852,-14.378 4.892,-21.134C2.308,-20.41 -0.339,-20.049 -2.988,-19.998C-2.138,-19.214 -1.127,-18.602 0,-18.243C0.368,-18.127 0.368,-17.609 0,-17.491" style="fill:rgb(38,84,134);fill-rule:nonzero;"/>
    </g>
</svg>
